<?xml version="1.0" standalone="no"?>
<!DOCTYPE svg PUBLIC "-//W3C//DTD SVG 20010904//EN"
 "http://www.w3.org/TR/2001/REC-SVG-20010904/DTD/svg10.dtd">
<svg version="1.0" xmlns="http://www.w3.org/2000/svg"
 width="225.000000pt" height="225.000000pt" viewBox="0 0 225.000000 225.000000"
 preserveAspectRatio="xMidYMid meet">

<g transform="translate(0.000000,225.000000) scale(0.100000,-0.100000)"
fill="#000000" stroke="none">
<path d="M917 2026 c-10 -14 -17 -40 -16 -58 1 -31 1 -32 9 -8 6 19 8 20 9 6
1 -12 6 -16 16 -12 9 3 15 0 15 -8 0 -8 -5 -16 -12 -18 -9 -3 -9 -12 0 -38 13
-35 16 -67 6 -57 -4 3 -10 21 -14 39 -8 31 -8 30 -9 -15 -1 -27 3 -46 8 -43 5
3 11 -11 15 -32 9 -58 7 -92 -6 -93 -7 0 12 -9 42 -20 50 -17 110 -43 134 -57
5 -3 6 0 2 6 -4 7 -3 12 2 12 6 0 12 -6 15 -14 18 -46 -173 -27 -208 21 -11
14 -20 15 -94 3 -78 -12 -82 -14 -88 -41 -6 -33 -32 -39 -40 -9 -3 11 -20 24
-42 30 -20 7 -50 18 -68 26 -17 8 -45 17 -62 20 -37 8 -37 6 -20 -125 10 -80
9 -92 -15 -175 -14 -48 -26 -95 -26 -102 0 -8 44 -36 103 -65 90 -44 108 -50
155 -47 41 2 52 0 53 -12 0 -8 2 -26 4 -40 2 -14 4 -54 3 -90 -3 -209 0 -294
14 -368 8 -45 17 -84 19 -86 7 -6 168 -86 174 -86 3 0 5 9 5 20 0 11 4 20 9
20 6 0 9 56 8 133 -1 72 3 161 9 197 6 36 9 67 5 70 -17 14 -10 31 11 28 19
-2 23 -10 25 -43 9 -204 15 -257 33 -315 11 -36 20 -84 20 -107 0 -47 -8 -42
120 -72 129 -30 140 -32 140 -16 0 8 -12 17 -27 21 -49 10 -49 14 -3 11 l45
-2 0 167 c0 137 -3 168 -14 168 -11 0 -13 15 -8 78 6 97 29 152 62 152 6 0 4
-4 -4 -9 -9 -6 -5 -10 15 -14 16 -2 74 -14 129 -27 55 -12 106 -23 113 -24 7
-1 18 -8 24 -14 7 -7 21 -12 32 -12 23 0 175 57 191 72 9 9 -147 -46 -166 -58
-5 -3 -9 64 -9 149 0 125 -6 186 -30 328 -16 96 -30 178 -30 183 0 4 -11 5
-24 2 -18 -4 -28 -1 -35 11 -9 16 -15 16 -113 0 -111 -19 -146 -21 -134 -9 7
7 11 8 37 11 5 0 7 7 3 14 -4 6 -4 9 0 5 11 -10 69 13 59 23 -5 5 -51 12 -102
16 -51 3 -88 9 -82 12 14 9 0 25 -24 29 -64 9 -60 -1 -57 137 3 115 2 125 -15
126 -16 0 -16 1 2 9 19 7 18 9 -8 19 -16 6 -33 11 -38 11 -5 0 -9 5 -9 10 0 6
-13 10 -29 10 -16 0 -31 5 -33 11 -2 5 -20 14 -41 20 -20 5 -53 13 -72 18 -25
6 -35 6 -35 -3 0 -7 -3 -6 -9 2 -6 10 -12 7 -24 -12z m56 -86 c3 -11 1 -18 -4
-14 -5 3 -9 12 -9 20 0 20 7 17 13 -6z m-6 -82 c-3 -8 -6 -5 -6 6 -1 11 2 17
5 13 3 -3 4 -12 1 -19z m33 -98 c0 -5 -5 -10 -11 -10 -5 0 -7 5 -4 10 3 6 8
10 11 10 2 0 4 -4 4 -10z m-22 -45 c-3 -3 -9 2 -12 12 -6 14 -5 15 5 6 7 -7
10 -15 7 -18z m-445 -92 c3 -5 1 -17 -3 -27 -6 -17 -7 -18 -13 -3 -4 10 -1 17
6 17 8 0 6 4 -3 10 -9 6 -10 10 -3 10 6 0 14 -3 16 -7z m152 -63 c-10 -16 -45
-32 -45 -20 0 5 7 10 15 10 8 0 15 5 15 10 0 6 5 10 11 10 5 0 7 -4 4 -10z
m-135 -15 c0 -8 -4 -15 -10 -15 -5 0 -7 7 -4 15 4 8 8 15 10 15 2 0 4 -7 4
-15z m1066 -4 c-4 -5 2 -7 12 -4 16 4 21 -10 41 -110 12 -64 24 -132 27 -154
2 -21 7 -49 9 -63 l6 -25 -78 3 c-86 3 -212 18 -220 25 -2 3 -5 21 -6 41 -1
20 -5 36 -9 36 -5 0 -8 19 -8 43 0 23 -7 71 -15 106 -9 35 -14 65 -13 66 2 0
57 10 123 22 66 11 124 21 128 22 5 0 6 -3 3 -8z m-851 -278 l7 -103 -38 1
c-39 0 -94 17 -64 18 13 1 13 2 0 11 -13 8 -12 10 3 10 9 0 17 5 17 11 0 5 -4
7 -10 4 -15 -9 -12 7 11 69 12 31 25 53 29 51 13 -8 20 23 21 93 l2 67 7 -65
c4 -36 11 -111 15 -167z m-202 172 c-3 -9 -8 -14 -10 -11 -3 3 -2 9 2 15 9 16
15 13 8 -4z m864 -337 c-3 -7 -5 -2 -5 12 0 14 2 19 5 13 2 -7 2 -19 0 -25z
m-33 -97 c-15 -17 -32 -31 -38 -31 -6 0 -4 6 5 13 8 7 24 25 34 41 11 16 21
24 23 18 2 -6 -9 -25 -24 -41z m203 -57 c-3 -3 -12 -4 -19 -1 -8 3 -5 6 6 6
11 1 17 -2 13 -5z m-448 -40 c2 -2 -7 -4 -22 -4 -14 0 -29 5 -32 10 -6 10 42
4 54 -6z m44 -11 c-7 -2 -19 -2 -25 0 -7 3 -2 5 12 5 14 0 19 -2 13 -5z m58
-21 c-7 -2 -18 1 -23 6 -8 8 -4 9 13 5 13 -4 18 -8 10 -11z m-386 -302 c3 -6
-1 -7 -9 -4 -18 7 -21 14 -7 14 6 0 13 -4 16 -10z"/>
<path d="M902 1870 c0 -14 2 -19 5 -12 2 6 2 18 0 25 -3 6 -5 1 -5 -13z"/>
<path d="M911 1754 c0 -11 3 -14 6 -6 3 7 2 16 -1 19 -3 4 -6 -2 -5 -13z"/>
<path d="M451 1213 c-7 -14 -2 -22 24 -40 19 -13 36 -23 39 -23 3 0 28 -13 54
-30 56 -34 59 -35 59 -17 0 6 2 18 4 26 3 9 -25 30 -76 57 -44 24 -83 44 -87
44 -4 0 -11 -8 -17 -17z"/>
<path d="M1422 890 c2 -30 21 -42 84 -54 10 -3 62 -18 114 -35 52 -17 104 -31
117 -31 20 0 22 4 20 40 -2 34 -5 40 -25 40 -12 0 -82 16 -155 35 -72 19 -138
35 -145 35 -8 0 -11 -11 -10 -30z"/>
<path d="M1055 574 c-9 -15 -12 -23 -6 -20 11 7 35 46 28 46 -3 0 -12 -12 -22
-26z"/>
</g>
</svg>
