<?xml version="1.0" standalone="no"?>
<!DOCTYPE svg PUBLIC "-//W3C//DTD SVG 20010904//EN"
 "http://www.w3.org/TR/2001/REC-SVG-20010904/DTD/svg10.dtd">
<svg version="1.0" xmlns="http://www.w3.org/2000/svg"
 width="225.000000pt" height="225.000000pt" viewBox="0 0 225.000000 225.000000"
 preserveAspectRatio="xMidYMid meet">

<g transform="translate(0.000000,225.000000) scale(0.100000,-0.100000)"
fill="#000000" stroke="none">
<path d="M0 1854 l0 -396 33 9 c43 11 288 4 304 -9 9 -7 13 -54 13 -156 1 -81
2 -174 2 -207 0 -33 -3 -100 -7 -148 -9 -97 -22 -117 -77 -117 -42 0 -34 -18
10 -22 36 -3 37 -5 47 -53 6 -27 14 -56 19 -63 5 -9 3 -13 -5 -11 -28 3 -49
-1 -49 -11 0 -5 5 -10 11 -10 19 0 39 -28 39 -54 0 -14 -5 -26 -10 -26 -6 0 1
-17 15 -38 l26 -39 42 21 c24 12 72 51 108 87 63 64 103 89 117 74 4 -3 9 -41
12 -84 7 -85 33 -150 67 -166 21 -9 21 -14 17 -222 l-4 -213 509 0 509 0 -9
38 c-5 20 -9 56 -9 78 0 23 -7 58 -16 79 -12 29 -15 76 -15 213 1 206 -10 336
-33 380 -9 17 -16 44 -16 60 0 16 -6 48 -14 73 -18 59 -33 113 -47 179 -7 30
-23 75 -35 100 -28 57 -46 167 -32 195 23 44 38 54 76 48 62 -10 72 -19 72
-68 0 -27 5 -45 11 -45 8 0 10 18 6 58 -2 32 -1 65 3 73 4 8 10 39 14 69 13
134 64 172 97 72 7 -20 39 -81 72 -135 68 -114 69 -122 11 -241 -73 -149 -116
-352 -96 -452 7 -31 19 -66 28 -76 13 -14 14 -21 5 -32 -13 -16 -6 -56 9 -56
17 0 32 42 27 74 -12 75 31 130 98 124 29 -3 31 0 58 77 16 44 35 104 43 133
8 30 19 63 25 74 15 29 8 278 -8 278 -8 0 -13 -13 -13 -30 0 -43 -32 -58 -54
-25 -35 53 -7 119 48 113 l31 -3 2 135 c2 134 -3 146 -26 55 -8 -30 -16 -41
-31 -42 -27 -2 -54 59 -45 107 10 64 12 101 3 106 -5 3 -6 10 -2 15 3 5 -1 21
-10 34 -9 13 -13 30 -10 38 3 8 1 18 -5 22 -6 3 -11 15 -11 25 0 11 -10 25
-22 31 -13 7 -27 18 -31 25 -4 8 -13 14 -18 14 -6 0 -26 11 -46 24 -32 22 -43
24 -102 19 -80 -7 -99 -18 -75 -44 9 -10 13 -25 10 -36 -6 -17 -108 -74 -132
-73 -6 0 -20 -11 -32 -25 -28 -32 -50 -32 -62 1 -14 36 -32 19 -28 -28 4 -58
-16 -68 -70 -34 -43 27 -54 46 -27 46 34 0 5 48 -38 63 -26 10 -16 31 16 35
14 2 31 10 37 17 16 19 50 2 50 -26 0 -27 47 -49 61 -28 8 11 3 117 -5 126 -6
6 -89 -25 -96 -36 -6 -11 -12 -11 -31 3 -13 9 -32 16 -42 16 -16 0 -40 42 -61
107 -7 21 -5 21 25 13 39 -11 48 -23 42 -54 -6 -32 13 -41 43 -21 13 9 29 13
34 10 6 -3 10 -1 10 6 0 9 3 9 14 0 23 -19 79 -10 82 13 4 26 29 40 84 47 l45
6 -32 8 c-34 8 -44 29 -18 39 9 3 15 18 15 36 l0 30 -187 0 c-181 -1 -187 -1
-160 -18 32 -20 33 -23 7 -40 -17 -10 -23 -9 -41 9 -11 11 -18 27 -15 35 5 12
-42 14 -317 14 -319 0 -322 0 -336 -21 -12 -20 -11 -21 5 -15 9 4 50 4 90 0
63 -6 78 -11 105 -36 26 -26 35 -29 69 -23 22 4 47 2 60 -5 20 -11 20 -12 3
-40 -9 -17 -24 -30 -31 -30 -10 0 -12 -5 -6 -17 4 -10 8 -34 8 -53 1 -33 -1
-35 -27 -32 l-29 3 36 -36 c35 -34 37 -41 51 -149 13 -99 13 -117 1 -141 -18
-35 -33 -44 -71 -45 -28 -1 -29 -2 -7 -10 12 -5 22 -15 22 -22 0 -7 -25 -65
-56 -128 l-56 -115 0 -168 c-1 -92 2 -170 6 -174 3 -3 14 1 23 10 30 26 68 31
88 10 10 -10 23 -18 29 -19 6 0 20 -2 32 -2 11 -1 29 -9 40 -17 17 -14 13 -15
-46 -9 -36 4 -72 10 -80 14 -25 13 -66 -16 -109 -77 -18 -26 -121 -112 -231
-191 -26 -19 -38 -9 -32 27 3 19 9 28 17 25 17 -7 61 21 97 60 27 29 40 52 16
28 -7 -7 -19 -12 -27 -12 -11 0 -11 4 3 19 10 11 25 17 36 14 17 -4 17 -1 9
37 -5 23 -7 58 -3 77 4 21 2 44 -7 59 -14 26 -22 27 -121 8 -20 -4 -28 -1 -33
15 -9 28 3 45 20 31 11 -9 14 -7 12 9 -1 12 -5 21 -9 21 -4 0 -8 8 -8 18 0 13
15 25 43 38 49 21 78 50 71 69 -6 13 -43 31 -79 37 -14 2 -5 10 32 29 31 16
60 25 75 22 17 -3 27 0 31 11 8 20 -22 29 -68 20 -40 -7 -48 8 -14 27 17 9 19
13 8 20 -12 7 -12 12 0 31 10 16 11 23 2 26 -11 4 -21 13 -48 46 -7 8 -13 23
-13 32 0 13 8 15 50 9 l50 -7 0 30 c0 75 -13 152 -26 152 -8 0 -14 4 -14 10 0
5 6 7 14 4 23 -9 29 53 9 87 -18 30 -14 39 22 52 11 4 15 156 4 162 -4 3 -18
1 -32 -4 -17 -7 -32 -5 -50 4 -14 7 -44 16 -67 20 -30 5 -44 13 -47 26 -3 10
-11 19 -18 19 -7 0 -15 5 -17 12 -2 6 -11 13 -19 14 -7 2 -22 5 -33 7 -10 2
-25 12 -33 23 -9 12 -27 20 -52 21 -49 2 -82 19 -75 38 5 12 -4 15 -45 15
l-51 0 0 -396z m173 301 c4 -8 2 -17 -3 -20 -6 -4 -10 0 -10 9 0 8 -6 17 -12
19 -8 4 -7 6 3 6 9 1 19 -6 22 -14z m984 -107 c-3 -8 -6 -5 -6 6 -1 11 2 17 5
13 3 -3 4 -12 1 -19z m-27 -28 c14 -14 20 -33 20 -62 0 -24 3 -54 6 -68 5 -22
3 -21 -15 8 -35 54 -67 38 -48 -25 18 -59 67 -79 81 -35 3 10 4 -9 1 -40 -2
-32 1 -58 6 -58 15 0 10 -92 -10 -162 -25 -94 -43 -118 -86 -118 -46 0 -115
66 -141 134 -17 47 -17 53 -1 130 9 44 22 83 29 85 7 2 30 21 51 43 44 46 49
78 12 78 -28 0 -29 1 -15 52 17 58 71 77 110 38z m-801 -21 c-15 -9 -32 -2
-24 11 3 5 13 6 21 3 12 -4 13 -8 3 -14z m173 -44 c4 -19 1 -25 -13 -25 -16 0
-17 3 -7 25 6 14 12 25 13 25 2 0 5 -11 7 -25z m-92 5 c12 -8 9 -10 -12 -10
-15 0 -30 -4 -33 -10 -3 -5 -17 -10 -30 -10 -36 0 -20 28 18 33 18 2 34 4 37
5 3 1 12 -3 20 -8z m1315 -30 c-3 -5 -12 -7 -20 -3 -21 7 -19 13 6 13 11 0 18
-4 14 -10z m-1437 -58 c2 -7 -3 -12 -12 -12 -9 0 -16 7 -16 16 0 17 22 14 28
-4z m978 -19 c7 -10 14 -35 14 -55 0 -37 -1 -38 -36 -38 -35 0 -35 1 -29 33
10 44 23 77 31 77 4 0 13 -8 20 -17z m-1127 -65 c20 -35 2 -78 -32 -78 -19 0
-26 8 -35 37 -10 31 -9 40 5 55 22 24 44 19 62 -14z m305 -83 c18 -18 11 -41
-16 -56 -23 -12 -25 -11 -28 16 -6 56 12 72 44 40z m-343 -46 c26 -13 15 -29
-21 -29 -35 0 -47 15 -23 29 23 13 21 13 44 0z m186 -26 c-9 -9 -20 -13 -24
-9 -4 4 -1 11 7 16 25 16 35 11 17 -7z m1130 -415 c-3 -8 -6 -5 -6 6 -1 11 2
17 5 13 3 -3 4 -12 1 -19z m10 -70 c-2 -13 -4 -5 -4 17 -1 22 1 32 4 23 2 -10
2 -28 0 -40z m42 -232 c0 -20 -1 -20 -8 -1 -5 11 -11 36 -15 55 l-7 35 16 -34
c8 -18 15 -43 14 -55z m-949 -16 c0 -5 -5 -10 -11 -10 -5 0 -7 5 -4 10 3 6 8
10 11 10 2 0 4 -4 4 -10z m713 -21 c70 -21 106 -39 77 -39 -19 0 -180 49 -180
55 0 10 34 4 103 -16z"/>
<path d="M1045 1800 c-3 -5 -1 -10 4 -10 6 0 11 5 11 10 0 6 -2 10 -4 10 -3 0
-8 -4 -11 -10z"/>
<path d="M1028 1704 c-9 -19 -9 -45 0 -107 11 -77 24 -108 38 -94 12 12 34
122 34 175 0 51 0 52 -30 52 -23 0 -33 -6 -42 -26z"/>
<path d="M200 2246 c0 -2 11 -6 25 -8 14 -3 25 -1 25 3 0 5 -11 9 -25 9 -14 0
-25 -2 -25 -4z"/>
<path d="M280 2230 c6 -11 13 -20 15 -20 3 0 5 9 5 20 0 11 -7 20 -15 20 -13
0 -14 -4 -5 -20z"/>
<path d="M1844 2229 c24 -13 42 -17 48 -11 6 6 24 6 46 1 50 -12 100 -11 107
1 3 6 -4 9 -17 8 -13 0 -50 4 -82 11 -33 6 -78 11 -100 11 l-41 0 39 -21z"/>
<path d="M1696 2211 c-4 -5 12 -24 34 -41 22 -17 40 -38 40 -45 0 -17 31 -35
60 -35 16 0 20 4 15 19 -3 11 -1 22 5 26 17 10 -6 33 -42 41 -17 3 -45 15 -62
25 -35 21 -42 23 -50 10z m114 -51 c0 -5 -4 -10 -10 -10 -5 0 -10 5 -10 10 0
6 5 10 10 10 6 0 10 -4 10 -10z"/>
<path d="M1907 2159 c-18 -10 -18 -12 3 -31 11 -11 28 -17 36 -14 13 5 13 9
-2 31 -9 14 -17 25 -18 25 0 0 -9 -5 -19 -11z"/>
<path d="M2078 2158 c-34 -12 -35 -16 -2 -51 30 -33 44 -28 44 18 0 40 -6 45
-42 33z"/>
<path d="M1675 2100 c-3 -5 1 -10 10 -10 9 0 13 5 10 10 -3 6 -8 10 -10 10 -2
0 -7 -4 -10 -10z"/>
<path d="M680 2039 c0 -5 5 -7 10 -4 6 3 10 8 10 11 0 2 -4 4 -10 4 -5 0 -10
-5 -10 -11z"/>
<path d="M2191 1975 c1 -52 4 -65 16 -65 12 0 13 3 3 15 -9 11 -9 22 0 50 12
37 8 65 -9 65 -6 0 -10 -28 -10 -65z"/>
<path d="M2037 2003 c-15 -14 -6 -33 18 -39 23 -6 36 -34 16 -34 -16 0 -20
-51 -4 -57 23 -9 32 9 39 75 l7 62 -35 0 c-19 0 -38 -3 -41 -7z"/>
<path d="M690 1970 c0 -5 7 -7 15 -4 8 4 15 8 15 10 0 2 -7 4 -15 4 -8 0 -15
-4 -15 -10z"/>
<path d="M2068 1833 c-24 -6 -23 -48 0 -78 l19 -24 11 47 c10 45 8 63 -6 61
-4 -1 -15 -3 -24 -6z"/>
<path d="M685 1810 c3 -5 8 -10 11 -10 2 0 4 5 4 10 0 6 -5 10 -11 10 -5 0 -7
-4 -4 -10z"/>
<path d="M680 1635 c0 -20 5 -25 25 -25 23 0 24 2 13 25 -6 14 -17 25 -25 25
-7 0 -13 -11 -13 -25z"/>
<path d="M2170 1550 c0 -51 3 -61 23 -72 50 -28 57 -23 57 41 0 51 -4 62 -22
75 -45 32 -58 22 -58 -44z"/>
<path d="M1671 1218 c-1 -26 -5 -50 -11 -53 -13 -8 -13 -75 0 -75 17 0 31 109
19 150 -5 20 -7 15 -8 -22z"/>
<path d="M477 1106 c-6 -16 19 -30 28 -16 7 11 -2 30 -15 30 -4 0 -10 -6 -13
-14z"/>
<path d="M0 925 c0 -9 5 -15 11 -13 14 5 14 21 0 26 -6 2 -11 -4 -11 -13z"/>
<path d="M141 858 c-6 -17 -5 -25 8 -29 20 -8 34 4 29 27 -5 27 -27 28 -37 2z"/>
<path d="M0 728 c0 -13 44 -38 67 -38 17 0 17 29 1 34 -46 14 -68 15 -68 4z"/>
<path d="M2160 602 c0 -12 39 -46 45 -41 6 7 -24 49 -36 49 -5 0 -9 -4 -9 -8z"/>
<path d="M0 590 c0 -6 7 -10 15 -10 8 0 15 2 15 4 0 2 -7 6 -15 10 -8 3 -15 1
-15 -4z"/>
<path d="M2010 590 c0 -5 5 -10 10 -10 6 0 10 5 10 10 0 6 -4 10 -10 10 -5 0
-10 -4 -10 -10z"/>
<path d="M2006 544 c-4 -10 -1 -14 6 -12 15 5 23 28 10 28 -5 0 -13 -7 -16
-16z"/>
<path d="M2130 516 c0 -9 40 -13 46 -5 3 5 -6 9 -20 9 -14 0 -26 -2 -26 -4z"/>
<path d="M433 258 c-12 -45 -10 -58 12 -58 16 0 22 15 21 59 -1 49 -20 48 -33
-1z"/>
<path d="M318 265 c-7 -33 0 -51 13 -38 5 5 5 22 0 38 l-8 30 -5 -30z"/>
<path d="M518 241 c-22 -21 -24 -74 -4 -90 12 -10 16 -6 22 21 5 18 9 38 9 43
0 6 4 15 7 21 7 11 0 25 -11 23 -3 0 -14 -8 -23 -18z"/>
<path d="M25 240 c3 -5 8 -10 11 -10 2 0 4 5 4 10 0 6 -5 10 -11 10 -5 0 -7
-4 -4 -10z"/>
<path d="M190 219 c0 -26 2 -28 19 -17 16 10 23 9 39 -6 14 -12 22 -14 27 -6
4 7 -2 14 -14 17 -11 3 -23 13 -26 22 -3 9 -14 17 -25 18 -16 1 -20 -4 -20
-28z"/>
<path d="M610 216 c0 -9 5 -16 10 -16 6 0 10 4 10 9 0 6 -4 13 -10 16 -5 3
-10 -1 -10 -9z"/>
<path d="M31 198 c-5 -14 -5 -24 1 -27 12 -4 28 17 28 37 0 20 -20 13 -29 -10z"/>
<path d="M385 186 c-11 -8 -14 -15 -8 -19 6 -4 16 0 23 8 17 21 8 28 -15 11z"/>
<path d="M420 140 c0 -5 5 -10 10 -10 6 0 10 5 10 10 0 6 -4 10 -10 10 -5 0
-10 -4 -10 -10z"/>
<path d="M400 90 c-13 -8 -13 -10 0 -14 32 -12 63 -10 68 3 3 10 -1 12 -17 8
-11 -3 -21 -1 -21 4 0 11 -11 11 -30 -1z"/>
<path d="M480 19 c0 -5 5 -7 10 -4 6 3 10 8 10 11 0 2 -4 4 -10 4 -5 0 -10 -5
-10 -11z"/>
</g>
</svg>
