<?xml version="1.0" standalone="no"?>
<!DOCTYPE svg PUBLIC "-//W3C//DTD SVG 20010904//EN"
 "http://www.w3.org/TR/2001/REC-SVG-20010904/DTD/svg10.dtd">
<svg version="1.0" xmlns="http://www.w3.org/2000/svg"
 width="200.000000pt" height="200.000000pt" viewBox="0 0 200.000000 200.000000"
 preserveAspectRatio="xMidYMid meet">

<g transform="translate(0.000000,200.000000) scale(0.100000,-0.100000)"
fill="#000000" stroke="none">
<path d="M0 1051 c0 -624 3 -952 10 -956 7 -4 7 -12 0 -25 -5 -10 -10 -29 -9
-42 l0 -23 12 25 c6 14 15 27 19 30 4 3 9 23 10 45 4 40 42 115 59 115 13 0
38 -61 42 -105 5 -57 42 -115 74 -115 21 0 23 3 17 23 -3 12 -11 28 -17 35 -9
11 -12 11 -17 -4 -5 -15 -9 -12 -18 14 -7 19 -7 34 -1 37 5 4 9 1 9 -4 0 -6
11 -11 25 -11 24 0 30 -12 26 -48 -3 -17 18 -42 35 -42 9 0 11 10 7 38 -6 35
-5 36 13 22 10 -8 20 -15 22 -16 2 -1 -1 -12 -8 -23 -8 -17 -8 -21 4 -21 8 0
16 10 18 23 4 29 32 29 36 -1 2 -12 10 -22 19 -22 9 0 13 6 10 15 -4 8 -2 17
4 20 5 4 9 35 7 70 -1 36 1 67 5 71 4 4 7 -1 7 -12 1 -10 7 -30 15 -44 l14
-25 1 38 c0 20 4 37 9 37 5 0 15 16 22 34 l13 35 23 -27 23 -27 0 25 c0 35 17
60 29 42 4 -8 11 -13 15 -13 18 3 20 0 6 -9 -13 -8 -13 -10 2 -10 9 0 24 7 32
16 21 20 21 80 1 88 -10 4 -15 -1 -15 -14 0 -11 -4 -20 -9 -20 -14 0 -33 28
-28 42 2 7 -5 19 -17 26 -19 12 -17 12 16 7 36 -6 53 7 26 18 -10 4 -10 6 0 6
7 1 28 -6 48 -14 19 -8 40 -13 47 -11 6 1 8 1 4 -2 -4 -2 -2 -11 5 -20 11 -14
10 -15 -7 -8 -11 5 -33 12 -50 17 -25 7 -27 7 -15 -5 25 -22 98 -47 102 -34 2
6 10 8 16 4 22 -13 12 -26 -19 -26 -26 0 -29 -2 -20 -14 13 -16 -1 -32 -19
-21 -5 3 -7 0 -4 -8 6 -17 -21 -47 -43 -47 -9 0 -13 -6 -9 -15 6 -17 -7 -19
-33 -6 -15 8 -17 6 -13 -18 2 -16 -1 -32 -7 -35 -7 -5 -8 -13 -2 -24 6 -12 5
-24 -5 -37 -8 -10 -14 -14 -14 -7 0 7 -8 5 -20 -5 -11 -10 -20 -24 -20 -32 0
-11 5 -10 21 5 21 19 22 19 15 -4 l-7 -22 144 1 c157 1 158 1 156 57 -1 25 -2
24 -12 -8 -8 -28 -11 -31 -15 -15 -2 11 -8 25 -14 32 -5 7 -5 13 1 17 5 3 12
0 14 -6 4 -8 6 -7 6 4 1 9 -4 18 -10 20 -15 5 -19 59 -6 76 7 8 5 12 -6 12
-13 0 -27 27 -27 56 0 15 91 58 119 56 19 -2 21 1 12 12 -9 11 -7 15 7 18 13
4 19 0 18 -10 0 -8 5 -17 12 -19 9 -4 11 2 6 23 -5 19 -4 25 5 20 6 -4 11 -3
11 1 0 5 20 19 45 31 37 18 45 19 45 7 0 -8 5 -15 10 -15 6 0 10 7 10 15 0 8
4 15 10 15 12 0 24 -63 15 -89 -8 -25 0 -27 21 -6 9 8 12 19 9 25 -3 5 -3 16
1 22 10 15 13 48 5 48 -3 0 -6 14 -6 30 0 44 11 37 18 -12 3 -24 14 -48 25
-57 11 -9 22 -32 26 -51 3 -19 17 -46 30 -60 13 -14 31 -47 40 -74 23 -70 94
-176 117 -176 11 0 19 5 19 11 0 6 -6 9 -14 6 -15 -6 -30 19 -20 34 3 5 0 9
-6 9 -6 0 -8 5 -5 10 3 6 -1 10 -10 10 -9 0 -14 4 -10 9 3 6 -3 14 -12 20 -14
8 -15 11 -3 11 10 1 9 4 -5 10 -11 5 -14 9 -7 9 6 1 12 6 12 12 0 6 -7 8 -16
5 -14 -5 -15 -4 -4 9 7 8 8 15 3 15 -6 0 -10 10 -10 23 0 12 -4 33 -10 47 -6
14 -13 36 -17 50 -7 24 -7 24 9 5 15 -18 15 -18 10 15 l-5 35 15 -33 c9 -18
13 -37 10 -43 -9 -14 2 -11 19 7 9 8 17 34 17 57 1 23 4 33 6 22 7 -25 42 -75
53 -75 20 0 37 31 34 59 -3 22 2 33 16 41 11 6 25 20 31 33 11 20 11 21 -4 9
-17 -14 -41 -7 -32 9 6 9 88 49 101 49 4 0 26 16 49 35 l42 34 -9 -45 c-10
-44 -9 -47 23 -80 18 -19 41 -36 51 -40 10 -3 18 -10 18 -16 0 -5 11 -23 25
-40 30 -36 34 -12 4 26 -11 14 -17 26 -14 26 9 0 64 -38 95 -65 14 -12 55 -39
93 -60 l67 -37 0 886 0 886 -1000 0 -1000 0 0 -949z m1713 687 c21 -25 22 -46
1 -69 -14 -16 -14 -19 5 -38 25 -25 15 -71 -20 -88 -34 -18 -295 -18 -301 0
-6 19 -11 205 -5 214 3 4 72 7 154 5 135 -3 149 -5 166 -24z m-1463 -18 l0
-40 106 0 106 0 -4 40 -4 40 38 0 38 0 0 -110 c0 -67 4 -110 10 -110 6 0 10 4
10 10 0 5 29 55 65 110 l65 100 53 0 53 0 69 -112 70 -112 3 112 3 112 145 0
c81 0 154 -5 165 -10 22 -12 27 -68 7 -88 -9 -9 -8 -16 5 -30 23 -25 21 -55
-4 -78 -18 -16 -42 -19 -209 -22 -183 -4 -189 -4 -202 17 -12 19 -22 21 -105
21 -82 0 -94 -2 -105 -20 -11 -17 -24 -20 -90 -20 l-78 0 0 45 0 45 -104 0
-105 0 -3 -42 c-3 -42 -4 -43 -40 -46 l-38 -3 0 115 0 116 40 0 40 0 0 -40z
m1119 -62 c-2 -57 -5 -109 -7 -115 -2 -7 -19 -13 -38 -13 l-34 0 0 115 0 115
41 0 41 0 -3 -102z m461 -13 l0 -115 -40 0 -40 0 0 115 0 115 40 0 40 0 0
-115z m-1253 -237 c-3 -8 -6 -5 -6 6 -1 11 2 17 5 13 3 -3 4 -12 1 -19z m51
-294 c14 -4 21 -12 18 -20 -3 -8 0 -11 8 -8 7 3 21 -5 31 -16 18 -20 18 -21
-3 -36 -12 -8 -22 -22 -22 -30 0 -16 -16 -19 -25 -4 -3 6 -19 10 -34 10 -50 0
-90 -24 -120 -72 -31 -49 -65 -75 -76 -58 -3 5 -1 19 5 30 10 19 10 20 -9 8
-26 -16 -39 -3 -18 19 8 10 17 38 19 63 3 41 7 47 48 72 25 16 66 32 90 37 59
12 61 12 88 5z m1087 -48 c20 -6 71 -93 61 -104 -3 -3 -14 2 -23 10 -10 9 -30
17 -44 20 -21 4 -27 0 -35 -28 l-10 -32 33 5 c24 4 39 1 54 -13 18 -16 20 -26
14 -74 -4 -30 -13 -67 -20 -82 -12 -25 -12 -28 3 -29 9 0 3 -6 -15 -12 -18 -7
-42 -20 -53 -29 -27 -24 -32 -23 -18 7 8 19 8 35 -1 65 -7 23 -9 50 -6 60 5
15 0 22 -21 30 -24 10 -26 14 -20 48 17 86 14 112 -10 131 -13 10 -37 24 -53
31 -46 19 -27 33 34 25 35 -4 55 -2 60 5 5 8 14 5 29 -8 11 -11 30 -23 41 -26z
m-147 -62 c12 -8 22 -24 22 -34 0 -17 -2 -17 -39 3 -23 12 -37 27 -34 34 7 17
24 16 51 -3z m-38 -60 c40 5 44 -5 24 -51 -10 -21 -16 -41 -15 -46 0 -4 -12
-10 -29 -14 -17 -3 -33 -10 -36 -14 -13 -22 -22 -5 -20 36 1 25 -2 45 -8 45
-6 0 -5 5 2 12 9 9 7 14 -6 25 -16 12 -16 14 1 27 16 13 21 12 38 -5 12 -12
29 -17 49 -15z m-817 4 c19 -15 13 -58 -8 -58 -7 0 -18 -7 -25 -15 -7 -8 -16
-15 -20 -15 -7 0 -4 16 16 88 2 6 7 12 12 12 4 0 16 -6 25 -12z m-203 -63 c7
-14 19 -25 25 -25 7 0 20 -9 29 -19 14 -16 23 -18 43 -10 13 5 35 9 47 9 13 0
29 7 36 15 7 9 14 14 16 12 7 -6 -27 -66 -41 -74 -7 -5 -15 -24 -17 -43 -3
-34 -4 -35 -48 -35 -25 0 -50 -3 -56 -7 -34 -22 -98 31 -106 90 -5 36 5 49 49
62 l28 8 -34 1 c-33 1 -34 1 -16 21 23 26 29 25 45 -5z m771 -22 c-12 -20 -14
-14 -5 12 4 9 9 14 11 11 3 -2 0 -13 -6 -23z m-542 -36 c-2 -1 -15 -11 -28
-22 l-24 -20 12 23 c6 12 19 22 28 22 9 0 14 -1 12 -3z m-313 -63 c21 -49 21
-89 0 -109 -23 -23 -20 -32 10 -32 27 0 84 -48 84 -70 0 -8 7 -16 15 -19 23
-9 18 -18 -18 -35 l-33 -15 -19 38 c-21 43 -39 51 -29 13 6 -23 -10 -37 -18
-16 -1 5 -16 12 -33 16 -28 6 -29 5 -11 -9 10 -8 24 -17 30 -19 22 -8 -2 -17
-47 -19 -53 -3 -60 -13 -19 -29 24 -10 44 -11 106 -9 26 1 32 -8 15 -25 -11
-10 -24 -12 -59 -5 -25 5 -65 9 -90 9 -40 1 -47 -3 -69 -34 -32 -47 -39 -37
-12 18 11 24 21 51 21 60 0 8 5 28 12 44 6 15 12 30 13 33 9 33 42 91 63 113
23 24 25 30 14 48 -16 25 0 59 28 59 23 0 26 -10 8 -28 -9 -9 -9 -12 0 -12 19
0 26 28 11 46 -9 11 -22 14 -41 10 -18 -3 -27 -2 -23 4 3 6 22 10 41 10 31 0
37 -4 50 -36z m1184 26 c8 -5 11 -10 5 -10 -5 0 -17 5 -25 10 -8 5 -10 10 -5
10 6 0 17 -5 25 -10z m-867 -20 c-45 -27 -44 -49 2 -45 19 2 35 -1 35 -6 0
-12 -40 -36 -74 -45 -26 -6 -29 -5 -23 15 3 14 1 21 -9 21 -8 0 -14 5 -14 10
0 6 5 10 10 10 6 0 9 4 8 9 -5 15 46 50 72 51 24 0 24 -1 -7 -20z m747 -10 c0
-5 -4 -10 -10 -10 -5 0 -10 5 -10 10 0 6 5 10 10 10 6 0 10 -4 10 -10z m85
-28 c-3 -3 -11 0 -18 7 -9 10 -8 11 6 5 10 -3 15 -9 12 -12z m-85 -1 c0 -6 -4
-12 -8 -15 -5 -3 -9 1 -9 9 0 8 4 15 9 15 4 0 8 -4 8 -9z m152 -46 c4 -20 1
-25 -14 -25 -23 0 -36 29 -17 41 22 13 26 11 31 -16z m101 -13 c-4 -9 -13 -28
-20 -41 -10 -20 -13 -22 -18 -9 -8 20 22 81 35 73 5 -3 6 -13 3 -23z m-895
-314 c7 1 12 -2 12 -8 0 -17 -22 -11 -69 18 -3 1 4 9 15 16 17 13 20 12 25 -7
3 -12 11 -21 17 -19z m-624 -15 c4 -5 13 -8 19 -8 7 0 13 -9 15 -20 2 -16 1
-17 -7 -5 -5 8 -13 11 -17 7 -4 -4 -13 -2 -19 3 -9 7 -16 5 -25 -5 -11 -13
-11 -16 1 -13 8 2 15 -7 17 -19 2 -13 -1 -23 -7 -23 -5 0 -9 -12 -8 -27 2 -22
-2 -28 -17 -26 -23 2 -9 -12 22 -22 21 -6 22 -4 17 22 l-6 28 14 -25 c23 -40
30 -85 15 -98 -10 -8 -24 1 -58 38 -25 27 -44 55 -42 64 2 11 -4 16 -19 16
-22 0 -21 0 4 33 14 17 31 31 37 29 6 -1 9 2 5 8 -4 6 4 19 17 30 26 22 31 23
42 13z m593 -20 c2 -6 -3 -13 -12 -16 -10 -5 -15 0 -15 14 0 21 21 22 27 2z
m-492 -28 c0 -5 -9 -11 -21 -13 -13 -2 -21 3 -21 13 0 10 8 15 21 13 12 -2 21
-7 21 -13z m-65 -15 c0 -5 -7 -10 -17 -10 -14 0 -15 -2 -1 -17 9 -10 19 -29
23 -42 4 -13 10 -19 14 -14 9 15 53 24 48 10 -2 -7 -12 -11 -22 -9 -16 3 -16
0 4 -33 23 -40 28 -75 9 -75 -14 0 -28 26 -59 108 -11 28 -25 52 -30 52 -16 0
-9 28 9 33 9 3 18 5 20 6 1 0 2 -3 2 -9z m35 -30 c3 -5 -1 -10 -10 -10 -9 0
-13 5 -10 10 3 6 8 10 10 10 2 0 7 -4 10 -10z m469 -86 c3 -8 2 -12 -4 -9 -6
3 -10 10 -10 16 0 14 7 11 14 -7z m-364 -70 c0 -8 -4 -14 -10 -14 -5 0 -10 9
-10 21 0 11 5 17 10 14 6 -3 10 -13 10 -21z m390 -64 c0 -13 -11 -13 -30 0
-12 8 -11 10 8 10 12 0 22 -4 22 -10z"/>
<path d="M1470 1690 c0 -6 35 -10 85 -10 50 0 85 4 85 10 0 6 -35 10 -85 10
-50 0 -85 -4 -85 -10z"/>
<path d="M1470 1605 c0 -12 16 -15 91 -15 68 0 90 3 87 13 -3 8 -33 13 -91 15
-73 2 -87 0 -87 -13z"/>
<path d="M703 1665 c-13 -19 -23 -37 -23 -40 0 -3 23 -5 50 -5 28 0 50 2 50 4
0 10 -42 76 -48 76 -4 0 -17 -16 -29 -35z"/>
<path d="M1010 1690 c0 -6 35 -10 85 -10 50 0 85 4 85 10 0 6 -35 10 -85 10
-50 0 -85 -4 -85 -10z"/>
<path d="M1010 1605 c0 -12 16 -15 91 -15 68 0 90 3 87 13 -3 8 -33 13 -91 15
-73 2 -87 0 -87 -13z"/>
<path d="M1666 912 c-2 -4 2 -16 10 -27 8 -10 14 -15 14 -11 0 4 7 0 16 -8 8
-9 22 -16 30 -16 25 0 15 24 -19 48 -36 24 -43 26 -51 14z"/>
<path d="M420 602 c0 -12 19 -26 26 -19 2 2 -2 10 -11 17 -9 8 -15 8 -15 2z"/>
<path d="M480 520 c0 -5 5 -10 10 -10 6 0 10 5 10 10 0 6 -4 10 -10 10 -5 0
-10 -4 -10 -10z"/>
<path d="M139 268 c-6 -13 -8 -20 -4 -15 5 4 16 0 25 -8 16 -14 17 -14 12 10
-6 35 -19 40 -33 13z"/>
<path d="M1610 357 c-7 -34 -15 -82 -17 -107 -2 -25 -6 -52 -9 -60 -3 -8 -5
-16 -6 -17 0 -1 -6 -24 -14 -49 -11 -38 -11 -50 -1 -62 10 -13 9 -15 -5 -9
-13 4 -16 2 -11 -11 3 -9 3 -14 -2 -10 -7 7 -35 -14 -35 -26 0 -3 11 -6 25 -6
18 0 26 7 31 25 3 14 11 22 16 19 6 -4 5 4 -2 16 -11 21 -10 22 6 16 18 -6 18
-5 2 8 -22 16 -23 27 -3 20 8 -4 15 -1 15 5 0 6 -6 11 -12 11 -9 0 -8 4 2 10
13 9 13 11 0 20 -8 5 -10 10 -5 10 30 0 37 -19 33 -89 -5 -87 7 -94 16 -10 10
103 8 140 -11 156 -17 14 -17 14 0 9 15 -5 17 4 17 89 0 51 -4 96 -9 99 -5 3
-14 -22 -21 -57z m0 -167 c-9 -6 -9 -9 1 -13 10 -4 9 -6 -3 -6 -20 -1 -21 0
-12 23 3 9 11 13 16 10 6 -4 6 -9 -2 -14z"/>
<path d="M1010 363 l-25 -14 29 3 c28 3 30 0 42 -52 16 -67 16 -73 5 -65 -5 3
-12 1 -16 -4 -3 -5 1 -13 9 -18 8 -4 16 -29 19 -55 5 -46 5 -46 -24 -43 -16 2
-29 0 -29 -5 0 -6 11 -10 25 -10 14 0 25 -4 25 -10 0 -5 5 -10 11 -10 5 0 7 6
3 13 -4 6 -3 8 1 4 5 -4 10 -14 11 -22 4 -24 28 -75 36 -75 5 0 7 3 7 8 -1 4
-1 21 0 39 1 24 5 31 16 27 8 -4 15 -15 15 -26 0 -10 4 -17 9 -14 12 8 2 46
-14 52 -20 8 -6 44 13 37 14 -5 15 -3 5 7 -7 7 -25 13 -40 14 -19 1 -27 6 -25
15 3 12 0 12 -12 1 -13 -10 -16 -10 -16 3 0 8 6 18 13 21 9 4 9 8 1 11 -7 3
-9 15 -6 27 4 16 2 19 -9 13 -12 -8 -12 -6 0 8 10 12 11 24 3 46 -6 16 -8 32
-5 35 4 3 1 6 -5 6 -6 0 -9 6 -6 13 8 22 -37 36 -66 20z m127 -241 c8 -5 8
-15 -2 -37 -13 -29 -16 -26 -18 13 -1 9 -6 20 -12 24 -6 5 -4 8 5 8 8 0 20 -4
27 -8z"/>
<path d="M985 309 c-7 -30 -1 -48 12 -36 3 4 7 15 8 25 0 9 4 23 9 30 4 7 2
12 -8 12 -8 0 -17 -13 -21 -31z"/>
<path d="M1810 313 c0 -6 6 -23 14 -38 8 -15 12 -34 9 -43 -4 -10 -2 -13 5 -8
8 5 12 -1 12 -16 1 -30 26 -64 34 -46 3 7 3 3 0 -10 -3 -13 0 -52 7 -88 11
-57 15 -64 37 -64 20 0 22 3 16 23 -4 12 -8 33 -8 47 -1 14 -6 32 -11 40 -11
18 -17 38 -16 64 0 10 -3 16 -6 12 -7 -7 -45 62 -40 72 2 4 -9 20 -25 37 -15
16 -28 25 -28 18z"/>
<path d="M1770 291 c0 -5 5 -13 10 -16 6 -3 10 -2 10 4 0 5 -4 13 -10 16 -5 3
-10 2 -10 -4z"/>
<path d="M660 280 c0 -5 5 -10 10 -10 6 0 10 5 10 10 0 6 -4 10 -10 10 -5 0
-10 -4 -10 -10z"/>
<path d="M906 254 c3 -24 1 -45 -5 -48 -5 -4 -8 -13 -5 -21 8 -19 24 -9 24 14
0 10 11 29 24 43 l24 24 -26 2 c-14 1 -29 8 -34 15 -4 6 -5 -7 -2 -29z"/>
<path d="M1030 270 c-9 -6 -10 -10 -3 -10 6 0 15 5 18 10 8 12 4 12 -15 0z"/>
<path d="M1120 260 c0 -5 5 -10 11 -10 5 0 7 5 4 10 -3 6 -8 10 -11 10 -2 0
-4 -4 -4 -10z"/>
<path d="M968 233 c-3 -10 1 -24 9 -32 12 -10 13 -8 7 16 -9 36 -10 38 -16 16z"/>
<path d="M1017 229 c4 -16 8 -17 14 -7 13 19 11 28 -5 28 -9 0 -12 -7 -9 -21z"/>
<path d="M860 232 c0 -12 19 -26 26 -19 2 2 -2 10 -11 17 -9 8 -15 8 -15 2z"/>
<path d="M1125 230 c3 -5 8 -10 11 -10 2 0 4 5 4 10 0 6 -5 10 -11 10 -5 0 -7
-4 -4 -10z"/>
<path d="M930 190 c0 -19 3 -21 12 -12 9 9 9 15 0 24 -9 9 -12 7 -12 -12z"/>
<path d="M1452 184 c1 -9 9 -19 16 -22 9 -3 13 2 10 14 -1 9 -9 19 -16 22 -9
3 -13 -2 -10 -14z"/>
<path d="M1006 182 c-6 -11 9 -25 37 -35 9 -4 17 -2 17 3 0 6 -5 10 -11 10 -5
0 -7 6 -3 13 4 6 4 9 -1 5 -4 -4 -14 -3 -21 3 -7 6 -14 6 -18 1z"/>
<path d="M1161 174 c0 -11 3 -14 6 -6 3 7 2 16 -1 19 -3 4 -6 -2 -5 -13z"/>
<path d="M885 150 c13 -64 9 -124 -7 -114 -7 4 -8 3 -4 -4 9 -14 16 -15 35 -3
12 8 12 12 2 25 -10 12 -11 16 -1 16 8 0 10 8 6 25 -5 19 -2 25 10 25 11 0 14
5 10 16 -3 9 -6 18 -6 20 0 3 -5 2 -12 -2 -6 -4 -18 2 -26 12 -13 17 -14 16
-7 -16z"/>
<path d="M95 159 c-4 -6 -14 -8 -21 -5 -12 5 -14 -2 -8 -32 3 -20 10 -41 14
-46 15 -16 29 5 23 34 -3 18 0 36 7 45 8 9 9 15 2 15 -6 0 -14 -5 -17 -11z"/>
<path d="M833 154 c-18 -8 17 -44 35 -36 12 4 10 7 -7 14 -12 4 -19 12 -16 18
7 11 6 11 -12 4z"/>
<path d="M994 152 c-9 -7 -14 -35 -14 -95 -1 -24 -3 -26 -20 -17 -28 15 -36
12 -14 -6 15 -13 16 -15 2 -10 -12 3 -15 1 -11 -10 6 -16 78 -20 88 -4 4 6 1
9 -7 8 -7 -2 -14 7 -16 20 -2 12 0 22 5 21 21 -4 33 2 33 16 0 18 -17 20 -23
3 -2 -7 -6 4 -8 24 -3 20 -1 34 3 32 4 -3 8 -1 8 5 0 14 -14 21 -26 13z"/>
<path d="M1409 73 c-5 -15 -16 -31 -22 -36 -8 -6 -6 -7 5 -3 11 3 22 -2 28
-14 14 -27 40 -26 33 0 -3 11 0 20 6 20 6 0 11 7 11 16 0 10 -6 14 -15 10 -9
-3 -15 0 -15 9 0 27 -20 26 -31 -2z"/>
<path d="M82 48 c-13 -13 -16 -48 -4 -48 5 0 17 9 29 19 19 18 22 18 39 3 17
-16 17 -16 2 8 -17 28 -47 37 -66 18z"/>
<path d="M1810 50 c0 -5 5 -10 10 -10 6 0 10 5 10 10 0 6 -4 10 -10 10 -5 0
-10 -4 -10 -10z"/>
<path d="M41 24 c0 -11 3 -14 6 -6 3 7 2 16 -1 19 -3 4 -6 -2 -5 -13z"/>
<path d="M1055 20 c-16 -18 -16 -20 -2 -20 9 0 21 9 27 20 6 11 7 20 2 20 -5
0 -17 -9 -27 -20z"/>
<path d="M1175 10 c3 -5 11 -10 16 -10 6 0 7 5 4 10 -3 6 -11 10 -16 10 -6 0
-7 -4 -4 -10z"/>
</g>
</svg>
