<?xml version="1.0" standalone="no"?>
<!DOCTYPE svg PUBLIC "-//W3C//DTD SVG 20010904//EN"
 "http://www.w3.org/TR/2001/REC-SVG-20010904/DTD/svg10.dtd">
<svg version="1.0" xmlns="http://www.w3.org/2000/svg"
 width="206.000000pt" height="210.000000pt" viewBox="0 0 206.000000 210.000000"
 preserveAspectRatio="xMidYMid meet">

<g transform="translate(0.000000,210.000000) scale(0.100000,-0.100000)"
fill="#000000" stroke="none">
<path d="M0 1293 l1 -808 20 60 c27 79 82 194 108 225 l21 25 0 -68 c0 -37 -7
-103 -16 -145 -25 -121 -11 -275 37 -392 10 -25 21 -64 24 -87 4 -24 11 -45
16 -49 5 -3 9 -16 9 -30 l0 -24 260 0 c143 0 260 2 260 5 0 3 -11 22 -24 43
-13 20 -30 55 -36 77 -28 87 -56 153 -97 223 -23 39 -48 93 -55 120 -6 26 -24
63 -39 82 -24 31 -61 129 -65 170 -2 22 -16 54 -28 63 -8 6 -7 10 2 14 6 2 9
9 6 15 -4 6 -10 5 -15 -3 -6 -10 -9 -7 -9 11 -1 22 -2 23 -11 7 -8 -13 -7 -22
1 -33 8 -9 9 -14 2 -14 -6 0 -18 16 -27 35 -8 19 -22 51 -31 70 -22 52 -30
163 -13 211 7 21 12 42 11 47 -1 4 2 7 7 7 5 0 11 -10 13 -22 2 -15 11 -23 33
-25 39 -5 46 -13 12 -13 -29 0 -36 -14 -12 -24 56 -21 125 71 125 165 0 41 14
53 23 19 3 -11 12 -20 20 -20 16 0 22 -18 32 -95 5 -37 4 -46 -4 -35 -9 13
-12 12 -17 -7 -4 -13 -14 -23 -23 -23 -14 0 -14 -2 -1 -10 12 -8 12 -10 1 -10
-11 0 -11 -3 -1 -15 7 -8 10 -24 7 -35 -3 -11 -1 -20 4 -20 6 0 5 -8 -1 -19
-5 -11 -10 -29 -10 -40 0 -12 -4 -21 -10 -21 -5 0 -10 -13 -10 -30 0 -30 -14
-41 -23 -17 -3 6 -6 2 -6 -10 -1 -16 -7 -23 -20 -23 -35 0 -33 -18 4 -36 19
-9 35 -22 35 -28 0 -16 57 -36 102 -36 19 0 60 9 90 19 66 23 106 18 119 -16
13 -34 12 -66 -2 -57 -7 4 -7 -1 1 -16 7 -13 8 -20 2 -16 -6 3 -16 -9 -23 -29
-7 -19 -19 -35 -27 -35 -8 0 -12 -6 -9 -14 4 -11 -8 -19 -44 -31 -27 -9 -49
-20 -49 -24 0 -5 28 -11 61 -15 34 -3 68 -11 75 -17 10 -9 14 -9 14 0 0 7 20
11 53 10 49 -1 50 -1 20 -10 -23 -7 -31 -14 -26 -25 3 -8 -3 -21 -13 -29 -27
-20 -34 -18 -34 10 0 18 -4 23 -16 18 -11 -4 -12 -8 -4 -13 6 -4 10 -18 8 -31
-2 -19 -13 -27 -50 -38 -29 -9 -48 -20 -48 -29 0 -12 -3 -12 -15 -2 -22 18
-19 4 4 -19 32 -32 29 -32 250 -30 76 0 106 -3 112 -13 10 -15 12 -44 2 -35
-8 9 -43 -22 -43 -39 0 -7 -6 -15 -12 -17 -10 -4 -10 -6 -1 -6 6 -1 14 3 18 9
9 14 47 -29 41 -46 -3 -8 -27 -24 -52 -36 -39 -17 -62 -20 -130 -16 -46 2 -81
1 -78 -4 3 -4 12 -8 20 -8 8 0 14 -7 14 -16 0 -12 6 -15 26 -10 22 6 24 5 15
-13 -13 -23 -14 -42 -3 -23 6 9 16 10 33 3 14 -5 122 -10 241 -10 168 -2 217
1 221 11 4 10 6 10 6 1 1 -7 10 -13 22 -13 15 0 19 5 15 15 -3 8 -1 15 5 15 5
0 12 -7 15 -15 7 -18 30 -20 38 -2 5 9 7 9 12 0 7 -17 44 -17 44 0 0 19 -40
41 -53 28 -14 -14 -27 -14 -27 -1 0 5 10 14 21 21 17 8 23 8 29 -2 6 -9 19 -7
54 10 25 11 46 26 46 33 0 9 3 9 11 1 15 -15 39 7 39 36 0 16 6 21 25 21 16 0
25 6 25 16 0 8 4 12 10 9 5 -3 10 1 10 9 0 9 5 16 10 16 18 0 10 -28 -15 -51
-13 -13 -25 -32 -25 -41 0 -10 -7 -18 -14 -18 -8 0 -27 -16 -42 -35 -15 -19
-37 -38 -50 -41 -68 -17 0 -24 236 -24 l260 0 0 1050 0 1050 -1030 0 -1030 0
0 -807z m815 649 c-16 -2 -22 -8 -18 -18 3 -8 0 -14 -6 -14 -6 0 -11 -5 -11
-10 0 -6 11 -3 25 6 28 18 55 13 55 -11 0 -8 6 -15 14 -15 8 0 18 -5 22 -11 4
-8 -10 -10 -47 -8 -63 5 -74 -12 -39 -61 18 -25 19 -30 6 -30 -9 0 -16 -4 -16
-10 0 -5 5 -10 10 -10 6 0 10 -4 10 -10 0 -5 -17 -11 -37 -11 l-38 -1 35 -8
c19 -5 48 -12 64 -17 25 -8 26 -10 12 -22 -10 -8 -26 -11 -43 -7 -77 19 -89
20 -75 4 11 -13 9 -17 -13 -22 -25 -6 -35 -26 -13 -26 20 0 -1 -13 -25 -15
-33 -3 -48 -8 -67 -25 -10 -8 -34 -28 -54 -43 -27 -21 -36 -35 -36 -57 0 -17
-3 -30 -7 -30 -5 0 -7 -25 -6 -55 1 -34 -2 -55 -9 -55 -7 0 -9 -13 -5 -36 5
-29 3 -35 -9 -30 -9 3 -20 6 -25 6 -6 0 -8 4 -5 8 3 5 -4 18 -14 30 -11 12
-20 24 -20 28 0 3 -11 19 -25 36 -14 16 -25 36 -25 44 0 8 -4 14 -10 14 -5 0
-10 6 -10 13 0 7 -18 31 -41 54 -38 40 -39 42 -20 52 11 6 25 11 31 11 14 0
29 15 53 53 10 15 24 27 32 27 8 0 27 23 42 51 30 55 38 68 68 113 17 26 20
27 27 10 6 -15 7 -13 4 6 -7 36 47 94 79 86 14 -4 25 -1 27 6 3 8 11 7 28 -5
31 -22 59 -22 67 0 4 9 14 24 22 33 15 15 18 15 38 1 l21 -16 -23 -3z m-105
18 c0 -5 6 -7 14 -4 8 3 17 1 20 -4 10 -16 -25 -23 -40 -8 -16 17 -18 26 -4
26 6 0 10 -4 10 -10z m720 -75 c0 -2 -10 -10 -22 -16 -21 -11 -22 -11 -9 4 13
16 31 23 31 12z m-553 -111 c-3 -3 -12 -4 -19 -1 -8 3 -5 6 6 6 11 1 17 -2 13
-5z m83 -44 c0 -5 -9 -10 -19 -10 -11 0 -23 5 -26 10 -4 6 5 10 19 10 14 0 26
-4 26 -10z m600 -10 c0 -19 -46 -47 -58 -36 -8 9 7 38 17 32 5 -3 11 1 15 9 8
22 26 18 26 -5z m-776 -74 c-21 -15 -30 -14 -19 3 3 6 14 11 23 11 13 0 13 -2
-4 -14z m-588 -101 c9 -8 11 -15 5 -15 -6 0 -11 -10 -11 -22 0 -19 -2 -20 -10
-8 -10 16 -14 60 -4 60 3 0 12 -7 20 -15z m500 -46 c3 -6 19 -9 34 -7 25 4 27
2 16 -14 -6 -10 -21 -18 -33 -18 -13 0 -23 -4 -23 -10 0 -5 -11 -10 -25 -10
-22 0 -25 4 -22 35 2 29 6 35 24 35 12 0 25 -5 29 -11z m91 -35 c-3 -3 -12 -4
-19 -1 -8 3 -5 6 6 6 11 1 17 -2 13 -5z m-454 -22 c16 -14 21 -72 6 -72 -5 0
-19 9 -31 20 -12 11 -24 17 -27 14 -3 -3 0 -9 7 -13 10 -6 10 -13 -1 -35 -12
-22 -16 -24 -21 -11 -9 25 -7 73 4 80 5 3 7 12 4 20 -7 17 37 15 59 -3z m487
-122 c3 -1 -11 -6 -30 -10 -19 -4 -50 -11 -67 -15 -24 -5 -33 -4 -33 5 0 7 6
10 13 7 7 -3 24 1 38 9 20 11 56 13 79 4z m-450 -41 c0 -5 6 -9 14 -9 8 0 17
-4 20 -9 4 -5 -15 -7 -41 -5 -51 5 -58 8 -50 21 7 11 57 13 57 2z m450 -21 c0
-32 -22 -87 -38 -93 -7 -2 -28 3 -45 12 -31 16 -31 16 -9 24 20 8 22 13 16 44
l-6 35 41 0 c35 0 41 -3 41 -22z m-426 -28 c30 -11 32 -29 11 -74 -10 -20 -23
-32 -35 -32 -22 0 -23 3 -20 61 3 58 5 60 44 45z m639 -7 c11 4 14 1 10 -9 -3
-9 2 -14 15 -14 12 0 23 -4 27 -10 9 -14 -17 -50 -36 -50 -11 0 -18 -12 -23
-39 -3 -22 -13 -46 -21 -55 -8 -8 -13 -21 -10 -29 4 -8 -4 -18 -17 -25 -23
-11 -23 -11 5 -11 36 -1 34 -17 -3 -36 -24 -13 -29 -20 -24 -39 4 -18 0 -28
-17 -39 -20 -15 -23 -15 -34 0 -16 22 -33 9 -32 -24 0 -16 2 -22 4 -15 5 14
33 16 33 2 0 -5 -5 -10 -10 -10 -6 0 -9 -6 -8 -12 4 -16 -34 -11 -44 5 -4 7
-5 19 -3 28 3 9 -10 43 -28 75 -52 92 -66 112 -87 117 -11 3 -20 10 -20 16 0
8 17 10 50 8 37 -3 50 -1 50 9 0 8 4 14 10 14 5 0 9 5 7 12 -1 6 7 14 18 16
42 9 107 56 132 95 18 28 27 36 33 27 4 -7 15 -10 23 -7z m-240 -90 c-7 -2
-19 -2 -25 0 -7 3 -2 5 12 5 14 0 19 -2 13 -5z m33 -351 c-2 -4 -18 -9 -35
-10 -22 -2 -31 2 -31 13 0 8 5 15 10 15 6 0 10 -4 10 -10 0 -5 4 -10 10 -10 5
0 7 7 3 16 -5 14 -3 15 16 5 12 -7 20 -15 17 -19z m-418 -32 c7 -11 10 -20 6
-20 -7 0 -34 27 -34 34 0 13 16 5 28 -14z m417 0 c3 -5 -1 -10 -9 -10 -9 0
-16 5 -16 10 0 6 4 10 9 10 6 0 13 -4 16 -10z m503 -116 c27 -8 29 -20 2 -27
-24 -6 -27 -27 -4 -27 23 0 10 -45 -24 -89 -15 -18 -33 -43 -39 -55 -11 -19
-13 -19 -13 -2 0 12 -5 16 -15 12 -12 -4 -15 3 -16 32 -1 20 -3 44 -4 52 -1 8
-3 23 -4 33 0 10 -5 16 -9 13 -4 -2 -8 4 -8 15 0 18 5 20 46 23 8 1 20 4 27 9
6 4 14 1 16 -5 3 -8 6 -6 6 5 1 19 5 20 39 11z m423 -415 c-20 -22 -21 -22
-21 -3 0 25 21 47 33 35 6 -6 1 -18 -12 -32z m-46 21 c3 -5 1 -10 -5 -10 -6 0
-25 -13 -42 -30 -30 -31 -48 -38 -48 -20 0 6 6 10 14 10 8 0 18 9 21 20 3 11
13 20 21 20 8 0 14 5 14 10 0 6 4 10 9 10 6 0 13 -4 16 -10z m-95 -114 c0 -6
-5 -5 -11 1 -6 6 -19 9 -28 6 -11 -4 -10 -1 4 10 20 15 34 8 35 -17z m-75 -5
c3 -5 1 -12 -5 -16 -5 -3 -10 1 -10 9 0 18 6 21 15 7z"/>
<path d="M590 1891 c0 -6 5 -13 10 -16 6 -3 10 1 10 9 0 9 -4 16 -10 16 -5 0
-10 -4 -10 -9z"/>
<path d="M631 1874 c0 -11 3 -14 6 -6 3 7 2 16 -1 19 -3 4 -6 -2 -5 -13z"/>
<path d="M570 1851 c0 -6 5 -13 10 -16 6 -3 10 1 10 9 0 9 -4 16 -10 16 -5 0
-10 -4 -10 -9z"/>
<path d="M520 1780 c0 -5 5 -10 11 -10 5 0 7 5 4 10 -3 6 -8 10 -11 10 -2 0
-4 -4 -4 -10z"/>
<path d="M494 1735 c-10 -8 -14 -15 -8 -15 6 0 17 7 24 15 16 19 9 19 -16 0z"/>
<path d="M705 1720 c3 -5 8 -10 11 -10 2 0 4 5 4 10 0 6 -5 10 -11 10 -5 0 -7
-4 -4 -10z"/>
<path d="M445 1580 c3 -5 14 -10 23 -10 15 0 15 2 2 10 -20 13 -33 13 -25 0z"/>
<path d="M350 1559 c0 -5 5 -7 10 -4 6 3 10 8 10 11 0 2 -4 4 -10 4 -5 0 -10
-5 -10 -11z"/>
<path d="M658 1463 c7 -3 16 -2 19 1 4 3 -2 6 -13 5 -11 0 -14 -3 -6 -6z"/>
<path d="M431 1060 c-9 -5 -4 -9 13 -12 14 -3 26 -2 26 2 0 12 -26 19 -39 10z"/>
<path d="M555 500 c3 -5 18 -10 33 -10 21 0 24 2 12 10 -20 13 -53 13 -45 0z"/>
<path d="M1 93 c-1 -87 0 -93 19 -93 16 0 19 5 15 23 -3 12 -12 54 -19 92
l-14 70 -1 -92z"/>
<path d="M1560 59 c0 -5 5 -7 10 -4 6 3 10 8 10 11 0 2 -4 4 -10 4 -5 0 -10
-5 -10 -11z"/>
</g>
</svg>
