<?xml version="1.0" standalone="no"?>
<!DOCTYPE svg PUBLIC "-//W3C//DTD SVG 20010904//EN"
 "http://www.w3.org/TR/2001/REC-SVG-20010904/DTD/svg10.dtd">
<svg version="1.0" xmlns="http://www.w3.org/2000/svg"
 width="168.000000pt" height="299.000000pt" viewBox="0 0 168.000000 299.000000"
 preserveAspectRatio="xMidYMid meet">

<g transform="translate(0.000000,299.000000) scale(0.100000,-0.100000)"
fill="#000000" stroke="none">
<path d="M0 2005 c0 -971 0 -986 19 -975 35 18 45 12 26 -16 -19 -30 -19 -31
17 -38 17 -3 31 1 40 12 7 9 8 13 3 10 -7 -4 -11 13 -11 48 0 32 3 48 7 37 4
-10 5 36 2 103 -7 145 9 275 44 359 14 33 40 98 59 144 19 47 41 89 48 95 7 6
37 40 67 76 29 36 56 67 59 70 3 3 32 38 64 78 63 78 76 80 76 10 0 -27 -4
-38 -15 -38 -20 0 -19 -26 4 -92 19 -57 15 -78 -16 -78 -7 0 -13 -7 -13 -16 0
-8 -4 -13 -9 -9 -21 12 -82 -66 -142 -180 l-63 -120 0 -140 c0 -126 3 -152 32
-259 34 -127 75 -205 148 -281 48 -50 67 -63 174 -110 l85 -37 125 5 c201 9
315 61 461 210 117 119 193 228 239 340 33 79 39 106 40 173 3 190 2 198 -33
250 -18 27 -39 61 -46 76 -17 33 -117 98 -188 123 -58 21 -58 21 -41 95 12 54
29 70 52 51 27 -22 146 1 146 29 0 4 -35 10 -77 14 -43 4 -94 9 -113 12 l-35
6 4 80 c4 95 -11 181 -45 253 -30 64 -52 84 -126 124 -72 37 -138 46 -256 32
-105 -11 -183 -48 -226 -104 -31 -41 -66 -129 -66 -167 0 -48 -14 -35 -37 33
-11 34 -35 100 -53 147 -59 160 -101 295 -105 343 -3 27 -10 67 -17 90 -12 38
-13 39 -20 16 -7 -23 -3 20 8 81 4 22 3 23 -5 5 -8 -17 -10 -18 -10 -2 -1 15
-15 17 -141 17 l-140 0 0 -985z m77 883 c-3 -8 -6 -5 -6 6 -1 11 2 17 5 13 3
-3 4 -12 1 -19z m1093 -643 c4 -11 11 -52 15 -91 7 -71 7 -71 -20 -78 -14 -4
-30 -17 -35 -29 -5 -12 -9 -17 -9 -12 -1 7 -26 9 -68 7 -72 -4 -142 -35 -166
-73 -15 -24 -29 -25 -25 -2 2 12 -8 21 -33 29 -20 7 -53 24 -75 39 -23 15 -47
24 -59 21 -11 -3 -27 1 -35 7 -16 13 -27 97 -12 97 5 0 8 21 7 46 l-2 46 78
-5 c43 -2 84 -9 92 -15 7 -6 36 -14 65 -18 44 -5 53 -4 58 11 12 29 63 45 143
43 63 -2 74 -5 81 -23z m-433 -358 c-2 -7 -23 -12 -48 -12 -42 0 -44 2 -47 31
-2 24 2 33 20 41 20 10 27 7 51 -19 16 -16 26 -35 24 -41z m343 30 c9 -27 8
-34 -7 -44 -21 -16 -35 -16 -68 -1 -32 14 -32 41 0 66 33 26 61 18 75 -21z
m90 -47 c-13 -8 -12 -10 3 -10 11 0 17 -8 17 -22 0 -46 -11 -64 -43 -74 -18
-5 -31 -15 -29 -22 2 -14 -14 -16 -23 -2 -10 17 -63 11 -74 -7 -9 -16 -10 -14
-11 9 0 25 -30 55 -42 42 -3 -2 -3 7 -1 21 4 16 12 25 24 25 11 0 19 3 19 8 0
4 17 8 38 9 20 0 55 8 77 16 48 17 66 20 45 7z m-270 -82 c7 -46 13 -91 13
-100 1 -10 5 -18 10 -18 5 0 4 -7 -3 -15 -7 -8 -23 -15 -36 -15 -20 0 -24 5
-24 33 0 18 -5 59 -11 91 -13 70 -6 106 20 106 15 0 20 -14 31 -82z m-222 12
c6 0 17 -14 26 -31 14 -28 14 -30 0 -25 -9 3 -22 6 -30 6 -8 0 -14 9 -14 20 0
19 -17 25 -67 23 -7 -1 -13 5 -13 13 0 8 7 14 15 14 8 0 15 5 15 11 0 6 13 1
29 -10 16 -12 34 -21 39 -21z m52 26 c0 -3 -4 -8 -10 -11 -5 -3 -10 -1 -10 4
0 6 5 11 10 11 6 0 10 -2 10 -4z m130 -307 c0 -11 -7 -19 -16 -19 -11 0 -14 5
-10 16 3 9 6 20 6 25 0 6 5 7 10 4 6 -3 10 -15 10 -26z m43 1 c3 -13 0 -20 -9
-20 -8 0 -14 10 -14 26 0 28 15 25 23 -6z m37 -80 c0 -5 -12 -10 -27 -9 -25 0
-26 1 -8 9 27 12 35 12 35 0z"/>
<path d="M670 1911 c0 -24 25 -34 40 -16 15 18 5 35 -21 35 -12 0 -19 -7 -19
-19z"/>
<path d="M1004 1919 c-8 -14 21 -43 35 -35 6 4 11 16 11 27 0 21 -34 27 -46 8z"/>
<path d="M607 2964 c-9 -33 8 -237 24 -294 9 -34 48 -112 49 -99 0 4 -11 36
-25 72 -19 52 -26 95 -32 209 -6 100 -11 134 -16 112z"/>
<path d="M446 2613 c-22 -22 19 -83 55 -83 25 0 53 26 44 41 -5 7 -15 3 -30
-11 l-23 -22 -13 24 c-7 12 -12 28 -11 35 3 14 -12 25 -22 16z"/>
<path d="M1520 2538 c-24 -40 -53 -82 -65 -93 -35 -32 -68 -59 -95 -78 -13 -9
-21 -17 -16 -17 11 0 136 92 136 100 0 4 21 39 46 79 26 39 44 74 42 77 -3 2
-25 -28 -48 -68z"/>
<path d="M1644 2474 c4 -16 14 -36 23 -44 14 -13 15 -12 9 10 -4 14 -8 32 -10
39 -1 8 -9 17 -16 19 -9 3 -11 -3 -6 -24z"/>
<path d="M1656 2152 c-11 -24 -28 -50 -39 -57 -19 -13 -18 -17 19 -142 l39
-128 3 93 c1 50 1 134 0 184 l-3 93 -19 -43z"/>
<path d="M414 1959 c-19 -22 -19 -22 2 -11 12 6 24 8 28 4 4 -3 4 1 0 11 -8
21 -7 21 -30 -4z"/>
<path d="M110 1026 c0 -8 5 -18 10 -21 6 -3 10 1 10 9 0 8 -4 18 -10 21 -5 3
-10 -1 -10 -9z"/>
<path d="M120 983 c0 -5 5 -15 10 -23 8 -12 10 -11 10 8 0 12 -4 22 -10 22 -5
0 -10 -3 -10 -7z"/>
<path d="M25 949 c-9 -14 -4 -18 34 -29 39 -11 44 11 6 28 -32 15 -32 15 -40
1z"/>
<path d="M196 788 c9 -31 54 -106 54 -91 0 14 -49 113 -56 113 -3 0 -2 -10 2
-22z"/>
<path d="M0 667 c0 -10 22 -20 71 -31 39 -9 80 -16 91 -16 10 0 21 -6 24 -14
3 -9 19 -12 47 -10 39 3 47 -1 90 -43 59 -57 73 -50 19 9 -21 24 -45 53 -51
66 -8 15 -17 20 -24 15 -13 -9 -33 -9 -57 -1 -8 3 -49 11 -90 17 -41 6 -85 14
-97 17 -16 5 -23 2 -23 -9z"/>
<path d="M400 475 c0 -2 23 -16 51 -30 33 -17 54 -35 60 -53 12 -35 52 -55 75
-37 24 17 89 -2 73 -22 -9 -10 -6 -13 14 -13 14 0 27 7 31 15 3 8 0 15 -6 15
-11 0 -29 8 -199 89 -85 41 -99 46 -99 36z"/>
<path d="M1182 438 c-7 -7 -12 -23 -12 -36 0 -13 -4 -20 -10 -17 -5 3 -10 2
-10 -3 0 -6 6 -12 14 -15 10 -4 17 7 24 36 12 46 11 52 -6 35z"/>
<path d="M1130 410 c-12 -8 -11 -10 8 -10 12 0 22 5 22 10 0 13 -11 13 -30 0z"/>
<path d="M735 350 c28 -12 65 -12 65 0 0 6 -19 10 -42 9 -33 0 -38 -2 -23 -9z"/>
<path d="M605 340 c4 -6 11 -8 16 -5 14 9 11 15 -7 15 -8 0 -12 -5 -9 -10z"/>
<path d="M1165 329 c-4 -6 -5 -12 -2 -15 2 -3 7 2 10 11 7 17 1 20 -8 4z"/>
</g>
</svg>
