<?xml version="1.0" standalone="no"?>
<!DOCTYPE svg PUBLIC "-//W3C//DTD SVG 20010904//EN"
 "http://www.w3.org/TR/2001/REC-SVG-20010904/DTD/svg10.dtd">
<svg version="1.0" xmlns="http://www.w3.org/2000/svg"
 width="800.000000pt" height="800.000000pt" viewBox="0 0 800.000000 800.000000"
 preserveAspectRatio="xMidYMid meet">

<g transform="translate(0.000000,800.000000) scale(0.100000,-0.100000)"
fill="#000000" stroke="none">
<path d="M3757 7770 c-258 -10 -519 -31 -534 -42 -7 -5 -16 -7 -21 -4 -6 3
-15 -1 -22 -9 -11 -13 -9 -15 18 -13 17 1 28 6 26 10 -3 4 1 8 8 8 38 2 596 3
703 2 61 -1 84 1 70 8 -19 8 -19 9 3 9 12 1 22 -3 22 -8 0 -9 55 -9 65 1 4 3
20 2 38 -3 17 -5 33 -6 36 -4 2 3 -1 5 -8 5 -7 0 -9 4 -6 10 4 6 -19 9 -60 9
-36 -1 -69 2 -72 5 -4 3 16 7 43 7 27 1 121 5 209 9 156 6 154 6 -85 7 -135 0
-330 -3 -433 -7z m206 -17 c-7 -2 -19 -2 -25 0 -7 3 -2 5 12 5 14 0 19 -2 13
-5z"/>
<path d="M4517 7773 c-3 -5 1 -14 9 -21 12 -11 14 -9 14 8 0 20 -14 27 -23 13z"/>
<path d="M4172 7745 c9 -9 110 -14 130 -6 10 4 -16 8 -59 9 -42 1 -74 0 -71
-3z"/>
<path d="M3930 7710 c-146 -4 -380 -11 -520 -14 -140 -4 -258 -10 -262 -14 -7
-7 10 -665 17 -689 3 -7 9 -13 15 -13 6 0 10 31 10 79 l0 78 38 7 c20 3 56 6
80 6 l42 0 0 84 0 84 173 6 c94 3 319 8 500 12 l327 6 0 -86 0 -86 80 0 80 0
0 -86 c0 -71 3 -85 15 -81 11 5 16 -7 21 -55 6 -55 8 -59 20 -43 16 21 18 227
5 305 -10 56 -14 28 -11 -95 1 -49 0 -88 -3 -85 -8 8 -16 249 -17 478 l0 212
-172 -2 c-95 0 -292 -4 -438 -8z"/>
<path d="M4563 7315 c0 -33 2 -45 4 -27 2 18 2 45 0 60 -2 15 -4 0 -4 -33z"/>
<path d="M4037 6943 c2 -38 6 -74 8 -80 5 -14 141 -19 147 -5 2 4 2 40 0 80
l-4 72 -77 0 -78 0 4 -67z"/>
<path d="M3524 6985 c3 -9 6 -43 6 -76 l0 -59 74 0 c69 0 100 -10 76 -25 -6
-4 -7 -35 -3 -80 l6 -75 -76 0 c-51 0 -77 -4 -80 -12 -3 -7 -3 -84 1 -170 l5
-158 -30 0 c-17 0 -44 -7 -59 -15 -16 -8 -46 -15 -67 -15 -24 0 -40 -5 -43
-15 -4 -8 -17 -15 -29 -15 -13 0 -27 -5 -30 -11 -4 -6 -13 -8 -20 -5 -8 3 -15
1 -17 -5 -3 -9 -20 -14 -83 -24 -69 -11 -100 -21 -87 -28 10 -7 99 -12 127 -7
37 6 169 -4 210 -15 37 -11 127 -15 350 -17 300 -3 300 -3 360 22 33 14 62 27
65 30 3 3 11 5 18 6 6 1 21 2 33 3 11 0 17 6 14 11 -8 12 -3 12 27 1 53 -20
140 23 191 93 l20 28 -135 -4 -136 -4 -7 169 -7 169 -87 -6 -86 -5 0 77 0 77
-159 2 c-87 1 -163 6 -168 11 -4 4 -10 42 -13 83 l-4 74 -82 3 c-72 3 -81 1
-75 -13z m490 -348 c3 -12 6 -46 6 -74 l0 -53 -87 0 c-49 0 -120 -3 -159 -6
l-71 -6 -6 62 c-13 117 -30 105 152 102 154 -3 159 -4 165 -25z"/>
<path d="M4351 6954 c0 -11 3 -14 6 -6 3 7 2 16 -1 19 -3 4 -6 -2 -5 -13z"/>
<path d="M121 6853 c-5 -10 -12 -58 -16 -107 l-8 -89 78 6 c43 4 89 7 102 7
17 0 23 6 23 21 0 17 -5 20 -27 15 -16 -2 -54 -8 -86 -11 l-57 -6 5 43 c16
115 9 106 63 97 70 -12 92 -11 92 5 0 9 -23 17 -69 25 -89 14 -89 14 -100 -6z"/>
<path d="M392 6863 c-44 -3 -54 -8 -62 -27 -7 -20 -14 -117 -11 -163 1 -9 25
-13 86 -13 69 0 87 3 92 16 3 9 2 55 -3 102 -10 97 -4 92 -102 85z m68 -103
l0 -70 -56 0 -57 0 7 61 c3 33 8 65 12 70 3 5 25 9 50 9 l44 0 0 -70z"/>
<path d="M524 6857 c-3 -8 -4 -36 -2 -63 3 -54 -2 -52 103 -43 37 3 40 2 43
-22 3 -26 2 -26 -77 -33 -64 -6 -81 -11 -81 -23 0 -14 12 -15 92 -9 50 4 96
10 101 13 11 7 0 82 -15 100 -8 10 -27 12 -73 7 l-62 -6 4 28 5 29 65 -5 c49
-4 67 -2 70 8 3 7 4 14 2 16 -2 2 -41 7 -86 11 -69 6 -84 5 -89 -8z"/>
<path d="M745 6836 c-4 -18 -7 -64 -8 -102 l-2 -69 78 -3 c63 -2 77 0 77 12 0
11 -15 16 -62 18 -49 2 -63 6 -62 18 0 8 4 48 8 88 6 61 5 72 -8 72 -9 0 -18
-13 -21 -34z"/>
<path d="M978 6863 c-25 -2 -51 -10 -57 -17 -6 -7 -12 -50 -13 -97 l-3 -84 85
0 85 0 3 88 c3 92 -6 119 -37 115 -9 -1 -37 -3 -63 -5z m66 -49 c3 -9 6 -40 6
-70 l0 -55 -57 3 -57 3 3 60 c1 33 5 63 7 67 3 5 25 8 49 8 30 0 45 -5 49 -16z"/>
<path d="M1233 6787 l-40 -81 -34 62 c-32 58 -56 75 -53 39 3 -29 75 -147 90
-147 9 0 32 38 59 96 25 53 45 98 45 99 0 2 -6 5 -13 8 -9 3 -27 -23 -54 -76z"/>
<path d="M1336 6861 c-4 -5 -9 -50 -13 -100 -7 -108 -8 -107 102 -96 58 5 75
10 75 22 0 14 -11 15 -75 10 l-75 -5 0 28 c0 29 0 29 68 32 52 2 67 6 67 18 0
11 -15 16 -63 18 -58 3 -63 5 -60 24 3 20 8 21 71 19 53 -2 67 1 67 12 0 8
-10 17 -22 21 -35 9 -136 7 -142 -3z"/>
<path d="M2982 6200 c0 -14 2 -19 5 -12 2 6 2 18 0 25 -3 6 -5 1 -5 -13z"/>
<path d="M5490 6015 c0 -5 5 -17 10 -25 5 -8 10 -10 10 -5 0 6 -5 17 -10 25
-5 8 -10 11 -10 5z"/>
<path d="M5510 5946 c0 -8 4 -17 9 -20 5 -4 7 3 4 14 -6 23 -13 26 -13 6z"/>
<path d="M2316 5910 c2 -19 11 -107 19 -195 31 -342 57 -600 61 -604 7 -7 4
50 -6 139 -5 47 -11 117 -14 155 -22 287 -41 466 -52 500 -13 40 -14 40 -8 5z"/>
<path d="M5531 5884 c0 -11 3 -14 6 -6 3 7 2 16 -1 19 -3 4 -6 -2 -5 -13z"/>
<path d="M2302 5860 c0 -14 2 -19 5 -12 2 6 2 18 0 25 -3 6 -5 1 -5 -13z"/>
<path d="M5541 5855 c0 -5 8 -52 19 -102 11 -51 22 -117 25 -145 4 -29 10 -71
15 -93 19 -98 8 23 -15 158 -21 126 -43 213 -44 182z"/>
<path d="M2292 5788 c1 -16 6 -28 10 -28 11 0 10 22 -2 40 -8 11 -9 9 -8 -12z"/>
<path d="M2284 5735 c-8 -20 3 -48 16 -40 5 3 10 11 10 16 0 6 -5 7 -12 3 -8
-5 -9 0 -6 14 7 25 0 30 -8 7z"/>
<path d="M2302 5630 c0 -14 2 -19 5 -12 2 6 2 18 0 25 -3 6 -5 1 -5 -13z"/>
<path d="M2287 5573 c-2 -5 -5 -83 -5 -175 0 -93 -4 -172 -7 -178 -3 -5 -2
-10 3 -10 5 0 7 -13 4 -30 -2 -16 -8 -27 -13 -24 -5 3 -9 -5 -9 -18 0 -19 2
-20 10 -8 8 11 9 8 4 -12 -4 -19 -1 -29 12 -36 20 -11 10 -34 -11 -25 -18 6
-20 -8 -2 -26 10 -10 9 -11 -5 -6 -25 10 -23 -2 2 -15 15 -8 20 -8 18 1 -2 6
3 14 11 17 8 3 11 0 7 -7 -4 -6 -2 -11 3 -11 14 0 14 13 0 27 -8 8 -4 15 13
27 17 12 20 19 10 25 -7 4 -15 21 -18 37 l-4 29 20 -25 c11 -14 20 -20 20 -14
0 5 -5 15 -10 20 -14 14 -20 146 -8 161 12 15 2 47 -12 38 -5 -3 -10 3 -10 15
0 12 3 19 8 17 9 -6 6 102 -3 112 -4 3 -6 -3 -5 -14 3 -30 1 -45 -7 -45 -5 0
-7 36 -7 80 2 77 0 89 -9 73z m20 -355 c-2 -13 -4 -5 -4 17 -1 22 1 32 4 23 2
-10 2 -28 0 -40z"/>
<path d="M2992 5560 c0 -14 2 -19 5 -12 2 6 2 18 0 25 -3 6 -5 1 -5 -13z"/>
<path d="M3003 5485 c12 -79 36 -341 39 -417 l3 -77 -40 -5 c-22 -3 -71 -8
-110 -11 -214 -19 -278 -30 -286 -50 -11 -28 -11 -37 1 -30 13 8 13 10 -6 -50
-30 -101 -34 -126 -15 -123 9 2 21 8 26 15 21 24 91 53 130 53 35 0 43 -5 58
-30 10 -16 15 -30 11 -30 -3 0 -1 -7 6 -15 6 -8 9 -22 6 -33 -4 -11 2 -27 14
-40 27 -29 34 -126 14 -207 -9 -33 -17 -80 -19 -105 l-4 -45 16 35 c8 19 24
71 34 115 10 44 29 108 43 142 15 34 41 116 59 182 18 66 37 124 41 128 5 4 6
-5 2 -22 -11 -46 -14 -282 -6 -450 12 -238 30 -520 40 -645 6 -63 14 -189 20
-279 8 -149 11 -166 29 -181 21 -15 21 -17 7 -165 -26 -262 -36 -445 -35 -625
1 -181 -9 -377 -35 -680 -8 -96 -15 -289 -16 -429 l0 -254 -37 -101 c-36 -96
-37 -107 -39 -234 l-1 -133 -49 -51 c-27 -27 -91 -81 -141 -119 -95 -70 -114
-99 -94 -137 6 -11 8 -22 5 -24 -22 -22 130 -58 252 -59 76 -1 89 2 125 25 21
14 50 43 63 64 16 26 41 45 83 65 66 30 73 43 73 146 l0 44 52 -5 c88 -9 92
-4 112 130 9 64 35 207 56 318 25 124 46 271 55 385 9 101 22 211 30 244 8 33
24 125 35 205 12 80 30 179 41 220 10 41 37 183 59 315 22 132 56 323 75 425
19 102 42 227 52 278 l16 92 43 0 c49 0 42 23 74 -242 13 -107 29 -191 44
-235 25 -68 57 -241 76 -408 15 -130 37 -267 59 -370 11 -49 36 -207 56 -350
19 -143 45 -327 56 -410 12 -82 32 -206 46 -275 14 -69 28 -168 31 -220 l7
-95 74 -15 c60 -13 76 -20 82 -38 6 -14 5 -22 -3 -22 -7 0 -9 -18 -5 -56 5
-50 10 -60 43 -88 21 -17 62 -57 92 -88 30 -32 74 -67 99 -79 41 -20 55 -21
157 -15 61 3 124 9 139 12 30 7 77 66 77 97 0 23 -47 69 -120 117 -54 36 -155
120 -145 120 3 0 -6 15 -20 34 -20 26 -23 35 -11 39 9 4 14 23 16 54 1 26 2
66 3 88 1 22 -8 96 -20 165 -34 194 -42 286 -48 545 -4 138 -14 299 -25 380
-23 177 -36 434 -30 595 10 253 5 486 -15 679 l-19 193 22 18 c19 16 20 22 10
51 -6 19 -12 35 -13 37 -2 2 -31 -8 -66 -22 -34 -15 -66 -26 -70 -26 -4 0 -10
32 -14 70 -4 39 -10 70 -14 70 -3 -1 -33 -7 -66 -15 -79 -19 -75 -20 -75 23 0
20 -3 53 -6 73 l-6 35 -87 -12 c-170 -26 -411 -36 -685 -31 -226 4 -287 9
-370 27 -115 25 -121 27 -105 46 9 11 8 14 -2 14 -9 1 -8 5 5 15 11 8 15 15 8
15 -8 0 -11 44 -9 154 1 85 -1 149 -6 143 -4 -7 -6 9 -4 35 2 26 0 45 -3 43
-9 -5 -30 337 -37 583 -4 139 -3 202 5 202 6 0 13 -6 15 -12 3 -7 6 -3 6 10 1
12 -4 22 -10 22 -6 0 -9 9 -6 19 3 11 -1 28 -8 38 -7 10 -15 65 -19 123 -9
130 -43 401 -52 409 -4 3 -4 -12 -1 -34z m70 -530 c-7 -21 -13 -19 -13 6 0 11
4 18 10 14 5 -3 7 -12 3 -20z m-16 -442 c-3 -10 -5 -4 -5 12 0 17 2 24 5 18 2
-7 2 -21 0 -30z m10 -145 c-3 -8 -6 -5 -6 6 -1 11 2 17 5 13 3 -3 4 -12 1 -19z
m40 -830 c-3 -8 -6 -5 -6 6 -1 11 2 17 5 13 3 -3 4 -12 1 -19z m-10 -135 c-3
-10 -5 -4 -5 12 0 17 2 24 5 18 2 -7 2 -21 0 -30z m1650 -2759 c-3 -3 -12 -4
-19 -1 -8 3 -5 6 6 6 11 1 17 -2 13 -5z"/>
<path d="M5612 5430 c0 -19 2 -27 5 -17 2 9 2 25 0 35 -3 9 -5 1 -5 -18z"/>
<path d="M5623 5345 c0 -27 2 -38 4 -22 2 15 2 37 0 50 -2 12 -4 0 -4 -28z"/>
<path d="M2251 5344 c0 -11 3 -14 6 -6 3 7 2 16 -1 19 -3 4 -6 -2 -5 -13z"/>
<path d="M5632 5245 c0 -16 2 -22 5 -12 2 9 2 23 0 30 -3 6 -5 -1 -5 -18z"/>
<path d="M2330 5211 c0 -6 4 -13 10 -16 6 -3 7 1 4 9 -7 18 -14 21 -14 7z"/>
<path d="M5643 5150 c0 -25 2 -35 4 -22 2 12 2 32 0 45 -2 12 -4 2 -4 -23z"/>
<path d="M2402 5075 c0 -16 2 -22 5 -12 2 9 2 23 0 30 -3 6 -5 -1 -5 -18z"/>
<path d="M4620 5060 c0 -5 26 -23 58 -39 31 -16 64 -37 73 -47 17 -20 32 -88
21 -98 -8 -8 -9 -56 -1 -56 3 0 6 -7 6 -15 0 -8 -4 -12 -8 -10 -4 3 -9 -13
-11 -34 -3 -32 -1 -37 10 -29 7 6 16 7 20 3 4 -4 1 -10 -7 -13 -11 -4 -11 -6
0 -13 9 -5 18 -1 26 14 11 19 11 18 6 -16 -3 -23 -1 -48 7 -63 7 -13 10 -27 7
-31 -4 -3 -7 1 -7 9 0 16 -28 33 -38 23 -3 -3 0 -5 6 -5 7 0 9 -13 5 -35 -5
-30 -3 -35 13 -35 15 0 19 -9 21 -45 2 -33 -2 -45 -12 -45 -12 0 -11 -6 3 -32
14 -26 19 -60 21 -153 1 -66 4 -121 5 -122 1 -1 2 193 2 431 l0 434 -95 7
c-53 4 -104 11 -113 16 -12 6 -18 6 -18 -1z"/>
<path d="M4943 4929 c30 -63 61 -136 71 -162 20 -52 31 -59 17 -11 -7 25 -6
30 10 31 10 1 31 13 46 27 15 14 40 28 55 31 15 4 39 21 54 38 25 30 31 32 98
33 86 1 106 -4 106 -24 0 -8 3 -12 7 -9 3 4 -6 36 -21 71 l-27 64 -52 4 c-29
3 -124 6 -212 7 -88 1 -170 4 -182 7 -21 6 -18 -3 30 -107z"/>
<path d="M2411 4994 c0 -11 3 -14 6 -6 3 7 2 16 -1 19 -3 4 -6 -2 -5 -13z"/>
<path d="M2268 4988 c5 -5 33 -11 63 -13 47 -4 50 -4 24 5 -40 14 -99 20 -87
8z"/>
<path d="M2551 4704 c0 -11 3 -14 6 -6 3 7 2 16 -1 19 -3 4 -6 -2 -5 -13z"/>
<path d="M5040 4688 c0 -21 89 -226 101 -234 5 -2 -3 19 -16 48 -14 29 -28 68
-31 86 -3 17 -10 32 -15 32 -5 0 -9 6 -9 14 0 7 -7 27 -15 42 -10 19 -15 23
-15 12z"/>
<path d="M4801 4514 c0 -11 3 -14 6 -6 3 7 2 16 -1 19 -3 4 -6 -2 -5 -13z"/>
<path d="M4790 4441 c0 -11 4 -22 9 -25 4 -3 6 6 3 19 -5 30 -12 33 -12 6z"/>
<path d="M4802 4380 c0 -14 2 -19 5 -12 2 6 2 18 0 25 -3 6 -5 1 -5 -13z"/>
<path d="M5225 4290 c9 -16 18 -30 21 -30 2 0 -2 14 -11 30 -9 17 -18 30 -21
30 -2 0 2 -13 11 -30z"/>
<path d="M5250 4241 c0 -6 4 -13 10 -16 6 -3 7 1 4 9 -7 18 -14 21 -14 7z"/>
<path d="M2455 4148 c11 -60 11 -71 -4 -76 -9 -3 -11 0 -6 9 5 10 5 11 -2 4
-14 -13 -27 -75 -16 -75 4 0 21 11 36 24 l28 24 -15 57 c-17 66 -31 88 -21 33z"/>
<path d="M4827 4033 c-4 -54 -7 -119 -7 -145 0 -27 -4 -48 -10 -48 -5 0 -10 6
-10 13 0 8 -3 7 -9 -3 -12 -18 -5 -31 14 -24 12 5 14 -17 14 -136 0 -79 2
-144 4 -146 2 -2 7 127 11 288 3 160 5 293 3 295 -2 2 -7 -41 -10 -94z"/>
<path d="M5341 4070 c14 -31 19 -36 19 -24 0 6 -7 19 -16 30 -14 18 -14 18 -3
-6z"/>
<path d="M4811 4064 c0 -11 3 -14 6 -6 3 7 2 16 -1 19 -3 4 -6 -2 -5 -13z"/>
<path d="M5453 4063 c9 -2 23 -2 30 0 6 3 -1 5 -18 5 -16 0 -22 -2 -12 -5z"/>
<path d="M5665 4024 c-107 -23 -156 -43 -197 -82 -16 -14 -28 -21 -28 -16 0 5
-9 15 -21 22 -19 12 -19 11 -9 -9 7 -12 20 -24 30 -26 13 -3 20 -19 25 -51 4
-26 9 -42 12 -36 2 6 -1 30 -6 53 l-9 43 45 31 c52 37 117 57 190 57 28 0 55
5 58 10 6 10 -49 12 -90 4z"/>
<path d="M2401 3883 c19 -22 72 -43 106 -42 22 1 18 4 -22 16 -27 8 -57 21
-66 29 -22 19 -34 18 -18 -3z"/>
<path d="M5544 3849 c-3 -6 -1 -16 5 -22 16 -16 13 -57 -4 -63 -8 -4 -23 0
-33 7 -16 13 -16 13 -2 -6 8 -10 23 -27 33 -37 9 -10 17 -22 17 -28 0 -16 -18
-12 -40 10 -11 11 -20 16 -20 12 0 -17 49 -54 61 -47 8 5 10 4 5 -3 -4 -7 -3
-12 3 -12 5 0 18 -3 28 -6 17 -6 17 -6 1 7 -10 8 -17 27 -17 44 0 78 1 91 11
109 7 12 7 16 0 12 -6 -3 -13 3 -17 14 -7 22 -20 26 -31 9z"/>
<path d="M4801 3794 c0 -11 3 -14 6 -6 3 7 2 16 -1 19 -3 4 -6 -2 -5 -13z"/>
<path d="M2538 3683 c0 -15 0 -35 1 -43 1 -8 2 -23 2 -32 0 -29 38 -33 65 -7
28 26 33 50 5 25 -28 -26 -51 -11 -51 34 0 45 -19 65 -22 23z"/>
<path d="M2366 3638 c6 -21 6 -22 -12 -8 -14 11 -13 8 4 -15 13 -16 39 -51 58
-78 20 -26 39 -45 44 -42 4 3 10 -2 14 -10 3 -8 13 -15 23 -15 17 1 17 1 1 11
-10 5 -31 30 -48 55 -17 24 -35 42 -40 39 -14 -8 -37 33 -34 60 1 14 -2 25 -8
25 -5 0 -6 -10 -2 -22z"/>
<path d="M5668 3643 c7 -3 16 -2 19 1 4 3 -2 6 -13 5 -11 0 -14 -3 -6 -6z"/>
<path d="M2396 3627 c3 -10 9 -15 12 -12 3 3 0 11 -7 18 -10 9 -11 8 -5 -6z"/>
<path d="M4794 3476 c-3 -8 -12 -12 -19 -10 -7 3 -16 1 -20 -5 -4 -7 0 -8 11
-4 13 5 15 3 9 -7 -5 -9 -4 -11 3 -6 14 8 36 46 27 46 -3 0 -8 -6 -11 -14z"/>
</g>
</svg>
